<svg width="864.58737" height="294.8575" xmlns="http://www.w3.org/2000/svg">

 <metadata id="metadata4601">image/svg+xml</metadata>
 <g>
  <title>background</title>
  <rect fill="none" id="canvas_background" height="402" width="582" y="-1" x="-1"/>
 </g>
 <g>
  <title>Layer 1</title>
  <g id="layer1">
   <g id="g5196">
    <path fill="#f0b90b" fill-rule="nonzero" id="path4150" d="m27.182502,208.927746l-27.1825,0l0,-118.92l27.1825,0l0,118.92z"/>
    <g transform="matrix(1.25,0,0,-1.25,-474.29886,284.56335) " id="g4160">
     <path fill="#f0b90b" fill-rule="nonzero" id="path4162" d="m480.692078,102.232483l0,-41.724l-20.386,0l0,38.734c0,8.427 -5.301,12.368 -11.824,12.368c-7.475,0 -12.641,-4.349 -12.641,-13.999l0,-37.103l-20.386,0l0,67.955l20.386,0l0,-6.388c3.671,5.029 10.466,8.291 19.436,8.291c13.727,0 25.415,-9.786 25.415,-28.134"/>
    </g>
    <g transform="matrix(1.25,0,0,-1.25,-377.80474,251.7746) " id="g4164">
     <path fill="#f0b90b" fill-rule="nonzero" id="path4166" d="m480.692078,102.232483l-25.144,-67.955l-23.103,0l-25.144,67.955l22.56,0l14.135,-43.083l14.135,43.083l22.561,0z"/>
    </g>
    <g transform="matrix(1.25,0,0,-1.25,-314.77686,285.41235) " id="g4168">
     <path fill="#f0b90b" fill-rule="nonzero" id="path4170" d="m480.692078,102.232483c-2.174,7.883 -8.291,10.737 -14.406,10.737c-7.748,0 -12.912,-3.806 -14.815,-10.737l29.221,0zm-12.503,-24.735c5.571,0 10.329,2.174 13.046,5.164l16.309,-9.378c-6.659,-9.241 -16.716,-13.998 -29.627,-13.998c-23.241,0 -37.647,15.629 -37.647,35.88c0,20.25 14.677,35.88 36.152,35.88c19.842,0 34.52,-15.358 34.52,-35.88c0,-2.854 -0.271,-5.572 -0.816,-8.155l-48.247,0c2.582,-7.067 8.834,-9.513 16.31,-9.513"/>
    </g>
    <g transform="matrix(1.25,0,0,-1.25,-214.20611,311.2351) " id="g4172">
     <path fill="#f0b90b" fill-rule="nonzero" id="path4174" d="m480.692078,102.232483c0,-15.629 -13.591,-22.289 -28.269,-22.289c-13.592,0 -23.92,5.164 -29.22,16.173l17.667,10.057c1.767,-5.164 5.572,-8.018 11.553,-8.018c4.893,0 7.339,1.495 7.339,4.213c0,7.475 -33.433,3.534 -33.433,27.046c0,14.814 12.502,22.289 26.637,22.289c11.009,0 20.794,-4.893 26.502,-14.543l-17.396,-9.377c-1.902,3.533 -4.621,5.98 -9.106,5.98c-3.534,0 -5.708,-1.359 -5.708,-3.805c0,-7.747 33.434,-2.583 33.434,-27.726"/>
    </g>
    <g transform="matrix(1.25,0,0,-1.25,-173.43461,276.23872) " id="g4176">
     <path fill="#f0b90b" fill-rule="nonzero" id="path4178" d="m480.692078,102.232483l0,-24.056c0,-5.844 5.029,-6.387 13.999,-5.844l0,-18.483c-26.639,-2.719 -34.385,5.3 -34.385,24.327l0,24.056l-10.873,0l0,19.571l10.873,0l0,12.911l20.386,6.116l0,-19.027l13.999,0l0,-19.571l-13.999,0z"/>
    </g>
    <g transform="matrix(1.25,0,0,-1.25,-77.279864,294.2466) " id="g4180">
     <path fill="#f0b90b" fill-rule="nonzero" id="path4182" d="m480.692078,102.232483c0,10.193 -6.796,16.581 -16.173,16.581c-9.379,0 -16.174,-6.388 -16.174,-16.581c0,-10.193 6.795,-16.581 16.174,-16.581c9.377,0 16.173,6.388 16.173,16.581m20.386,0c0,-20.25 -14.678,-35.88 -32.482,-35.88c-9.106,0 -15.766,3.127 -20.251,8.291l0,-6.388l-20.386,0l0,95.136l20.386,0l0,-33.57c4.485,5.165 11.145,8.291 20.251,8.291c17.804,0 32.482,-15.63 32.482,-35.88"/>
    </g>
    <g transform="matrix(1.25,0,0,-1.25,38.241386,251.7746) " id="g4184">
     <path fill="#f0b90b" fill-rule="nonzero" id="path4186" d="m480.692078,102.232483l-23.241,-65.916c-7.611,-21.609 -19.706,-30.171 -38.735,-29.22l0,19.027c9.514,0 13.999,2.99 16.989,11.28l-27.045,64.829l22.426,0l15.085,-41.588l12.775,41.588l21.746,0z"/>
    </g>
    <path fill="#f0b90b" fill-rule="nonzero" id="path4188" d="m772.338752,123.983996l25.48375,0l0,84.94375l-25.48375,0l0,-84.94375zm-2.5475,-22.76375c0,-8.325 6.965,-15.29125 15.28875,-15.29125c8.32625,0 15.29125,6.96625 15.29125,15.29125c0,8.32375 -6.965,15.28875 -15.29125,15.28875c-8.32375,0 -15.28875,-6.965 -15.28875,-15.28875"/>
    <g transform="matrix(1.25,0,0,-1.25,246.22351,276.23872) " id="g4190">
     <path fill="#f0b90b" fill-rule="nonzero" id="path4192" d="m480.692078,102.232483l0,-24.056c0,-5.844 5.029,-6.387 13.999,-5.844l0,-18.483c-26.639,-2.719 -34.385,5.3 -34.385,24.327l0,24.056l-10.872,0l0,19.571l10.872,0l0,12.911l20.386,6.116l0,-19.027l13.999,0l0,-19.571l-13.999,0z"/>
    </g>
    <g transform="matrix(1.25,0,0,-1.25,122.54564,310.61673) " id="g4194">
     <path fill="#f0b90b" fill-rule="nonzero" id="path4196" d="m480.692078,102.232483c-1.873,-2.338 -4.087,-3.898 -6.765,-4.638c-2.619,-0.74 -5.95,-1.118 -9.978,-1.118l-6.916,0c-2.3,0 -3.715,0.13 -4.238,0.378c-0.53,0.211 -0.891,0.675 -1.139,1.291c-0.151,0.524 -0.276,2.213 -0.319,5.145l0,20.522l12.272,0c5.399,0 9.368,-0.507 12.002,-1.522c2.614,-0.988 4.601,-2.468 5.886,-4.428c1.328,-1.938 2.003,-4.281 2.003,-7.127c0,-3.315 -0.951,-6.117 -2.808,-8.503m-18.978,58.591c6.074,0 10.313,-0.377 12.677,-1.139c2.317,-0.739 4.13,-1.981 5.378,-3.752c1.241,-1.771 1.852,-3.925 1.852,-6.393c0,-2.402 -0.654,-4.514 -1.939,-6.349c-1.328,-1.831 -3.288,-3.202 -5.906,-4.087c-2.592,-0.929 -6.62,-1.393 -12.04,-1.393l-10.378,0l-0.021,23.113l10.377,0zm43.361,-41.147c-1.982,3.418 -4.659,6.096 -8.077,7.975c-2.344,1.35 -5.756,2.613 -10.189,3.731c4.136,1.414 7.467,3.164 9.978,5.334c2.553,2.176 4.47,4.66 5.777,7.446c1.371,2.829 2.068,5.777 2.068,8.903c0,4.297 -1.263,8.266 -3.817,11.873c-2.554,3.607 -6.161,6.365 -10.885,8.266c-1.814,0.739 -3.984,1.306 -6.366,1.771l0,16.726l-16.029,0l0,-15.609l-10.334,0l0,15.609l-16.03,0l0,-15.609l-24.486,0l0,-13.098l3.694,0c2.504,0 4.215,-0.232 5.08,-0.675c0.885,-0.464 1.517,-1.074 1.879,-1.852c0.377,-0.761 0.545,-2.554 0.545,-5.361l0,-52.874c0,-2.759 -0.168,-4.508 -0.545,-5.292c-0.362,-0.798 -0.994,-1.414 -1.879,-1.878c-0.865,-0.421 -2.576,-0.61 -5.08,-0.61l-3.694,0l0,-13.099l24.486,0l0,-15.603l16.03,0l0,15.603l10.311,0l0,-15.603l16.052,0l0,16.931c2.7,0.508 5.081,1.183 7.084,1.987c5.529,2.214 9.832,5.437 12.845,9.681c3.061,4.238 4.578,8.876 4.578,13.898c0,4.194 -0.993,8.012 -2.996,11.429"/>
    </g>
    <g transform="matrix(1.25,0,0,-1.25,-22.144364,228.6081) " id="g4198">
     <path fill="#f0b90b" fill-rule="nonzero" id="path4200" d="m480.692078,102.232483c15.043,39.173 53.034,67.063 97.438,67.063c39.636,0 74.178,-22.215 91.838,-54.846l13.263,3.979c-19.531,38.225 -59.31,64.458 -105.101,64.458c-52.008,0 -96.256,-33.839 -111.897,-80.654l14.459,0z"/>
    </g>
    <g transform="matrix(1.25,0,0,-1.25,213.02901,347.9081) " id="g4202">
     <path fill="#f0b90b" fill-rule="nonzero" id="path4204" d="m480.692078,102.232483c-0.896,0.809 -1.718,1.648 -2.488,2.507c-18.51,-29.239 -51.12,-48.708 -88.212,-48.708c-26.406,0 -50.535,9.878 -68.935,26.108c-3.155,-3.53 -6.635,-6.505 -10.435,-8.921c20.967,-19.11 48.831,-30.778 79.37,-30.778c41.558,0 78.164,21.608 99.177,54.178c-3.001,1.426 -5.865,3.255 -8.477,5.614"/>
    </g>
   </g>
  </g>
 </g>
</svg>