<?xml version="1.0" encoding="UTF-8" standalone="no"?>
<svg
   xmlns:dc="http://purl.org/dc/elements/1.1/"
   xmlns:cc="http://creativecommons.org/ns#"
   xmlns:rdf="http://www.w3.org/1999/02/22-rdf-syntax-ns#"
   xmlns:svg="http://www.w3.org/2000/svg"
   xmlns="http://www.w3.org/2000/svg"
   version="1.1"
   id="svg4596"
   viewBox="0 0 864.58737 294.8575"
   height="83.21534mm"
   width="244.00577mm">
  <defs
     id="defs4598" />
  <metadata
     id="metadata4601">
    <rdf:RDF>
      <cc:Work
         rdf:about="">
        <dc:format>image/svg+xml</dc:format>
        <dc:type
           rdf:resource="http://purl.org/dc/dcmitype/StillImage" />
        <dc:title></dc:title>
      </cc:Work>
    </rdf:RDF>
  </metadata>
  <g
     transform="translate(600.86511,-127.7906)"
     id="layer1">
    <g
       id="g5196">
      <path
         d="m -573.68261,336.71835 -27.1825,0 0,-118.92 27.1825,0 0,118.92 z"
         style="fill:#505050;fill-opacity:1;fill-rule:nonzero;stroke:none"
         id="path4150" />
      <g
         id="g4160"
         transform="matrix(1.25,0,0,-1.25,-474.29886,284.56335)">
        <path
           d="m 0,0 0,-41.724 -20.386,0 0,38.734 c 0,8.427 -5.301,12.368 -11.824,12.368 -7.475,0 -12.641,-4.349 -12.641,-13.999 l 0,-37.103 -20.386,0 0,67.955 20.386,0 0,-6.388 c 3.671,5.029 10.466,8.291 19.436,8.291 C -11.688,28.134 0,18.348 0,0"
           style="fill:#505050;fill-opacity:1;fill-rule:nonzero;stroke:none"
           id="path4162" />
      </g>
      <g
         id="g4164"
         transform="matrix(1.25,0,0,-1.25,-377.80474,251.7746)">
        <path
           d="m 0,0 -25.144,-67.955 -23.103,0 L -73.391,0 -50.831,0 -36.696,-43.083 -22.561,0 0,0 Z"
           style="fill:#505050;fill-opacity:1;fill-rule:nonzero;stroke:none"
           id="path4166" />
      </g>
      <g
         id="g4168"
         transform="matrix(1.25,0,0,-1.25,-314.77686,285.41235)">
        <path
           d="M 0,0 C -2.174,7.883 -8.291,10.737 -14.406,10.737 -22.154,10.737 -27.318,6.931 -29.221,0 L 0,0 Z m -12.503,-24.735 c 5.571,0 10.329,2.174 13.046,5.164 l 16.309,-9.378 c -6.659,-9.241 -16.716,-13.998 -29.627,-13.998 -23.241,0 -37.647,15.629 -37.647,35.88 0,20.25 14.677,35.88 36.152,35.88 19.842,0 34.52,-15.358 34.52,-35.88 0,-2.854 -0.271,-5.572 -0.816,-8.155 l -48.247,0 c 2.582,-7.067 8.834,-9.513 16.31,-9.513"
           style="fill:#505050;fill-opacity:1;fill-rule:nonzero;stroke:none"
           id="path4170" />
      </g>
      <g
         id="g4172"
         transform="matrix(1.25,0,0,-1.25,-214.20611,311.2351)">
        <path
           d="m 0,0 c 0,-15.629 -13.591,-22.289 -28.269,-22.289 -13.592,0 -23.92,5.164 -29.22,16.173 l 17.667,10.057 c 1.767,-5.164 5.572,-8.018 11.553,-8.018 4.893,0 7.339,1.495 7.339,4.213 0,7.475 -33.433,3.534 -33.433,27.046 0,14.814 12.502,22.289 26.637,22.289 11.009,0 20.794,-4.893 26.502,-14.543 L -18.62,25.551 c -1.902,3.533 -4.621,5.98 -9.106,5.98 -3.534,0 -5.708,-1.359 -5.708,-3.805 C -33.434,19.979 0,25.143 0,0"
           style="fill:#505050;fill-opacity:1;fill-rule:nonzero;stroke:none"
           id="path4174" />
      </g>
      <g
         id="g4176"
         transform="matrix(1.25,0,0,-1.25,-173.43461,276.23872)">
        <path
           d="M 0,0 0,-24.056 C 0,-29.9 5.029,-30.443 13.999,-29.9 l 0,-18.483 c -26.639,-2.719 -34.385,5.3 -34.385,24.327 l 0,24.056 -10.873,0 0,19.571 10.873,0 0,12.911 L 0,38.598 0,19.571 l 13.999,0 L 13.999,0 0,0 Z"
           style="fill:#505050;fill-opacity:1;fill-rule:nonzero;stroke:none"
           id="path4178" />
      </g>
      <g
         id="g4180"
         transform="matrix(1.25,0,0,-1.25,-77.279864,294.2466)">
        <path
           d="m 0,0 c 0,10.193 -6.796,16.581 -16.173,16.581 -9.379,0 -16.174,-6.388 -16.174,-16.581 0,-10.193 6.795,-16.581 16.174,-16.581 C -6.796,-16.581 0,-10.193 0,0 m 20.386,0 c 0,-20.25 -14.678,-35.88 -32.482,-35.88 -9.106,0 -15.766,3.127 -20.251,8.291 l 0,-6.388 -20.386,0 0,95.136 20.386,0 0,-33.57 c 4.485,5.165 11.145,8.291 20.251,8.291 C 5.708,35.88 20.386,20.25 20.386,0"
           style="fill:#505050;fill-opacity:1;fill-rule:nonzero;stroke:none"
           id="path4182" />
      </g>
      <g
         id="g4184"
         transform="matrix(1.25,0,0,-1.25,38.241386,251.7746)">
        <path
           d="m 0,0 -23.241,-65.916 c -7.611,-21.609 -19.706,-30.171 -38.735,-29.22 l 0,19.027 c 9.514,0 13.999,2.99 16.989,11.28 L -72.032,0 -49.606,0 -34.521,-41.588 -21.746,0 0,0 Z"
           style="fill:#505050;fill-opacity:1;fill-rule:nonzero;stroke:none"
           id="path4186" />
      </g>
      <path
         d="m 171.47364,251.7746 25.48375,0 0,84.94375 -25.48375,0 0,-84.94375 z m -2.5475,-22.76375 c 0,-8.325 6.965,-15.29125 15.28875,-15.29125 8.32625,0 15.29125,6.96625 15.29125,15.29125 0,8.32375 -6.965,15.28875 -15.29125,15.28875 -8.32375,0 -15.28875,-6.965 -15.28875,-15.28875"
         style="fill:#505050;fill-opacity:1;fill-rule:nonzero;stroke:none"
         id="path4188" />
      <g
         id="g4190"
         transform="matrix(1.25,0,0,-1.25,246.22351,276.23872)">
        <path
           d="M 0,0 0,-24.056 C 0,-29.9 5.029,-30.443 13.999,-29.9 l 0,-18.483 c -26.639,-2.719 -34.385,5.3 -34.385,24.327 l 0,24.056 -10.872,0 0,19.571 10.872,0 0,12.911 L 0,38.598 0,19.571 l 13.999,0 L 13.999,0 0,0 Z"
           style="fill:#505050;fill-opacity:1;fill-rule:nonzero;stroke:none"
           id="path4192" />
      </g>
      <g
         id="g4194"
         transform="matrix(1.25,0,0,-1.25,122.54564,310.61673)">
        <path
           d="m 0,0 c -1.873,-2.338 -4.087,-3.898 -6.765,-4.638 -2.619,-0.74 -5.95,-1.118 -9.978,-1.118 l -6.916,0 c -2.3,0 -3.715,0.13 -4.238,0.378 -0.53,0.211 -0.891,0.675 -1.139,1.291 -0.151,0.524 -0.276,2.213 -0.319,5.145 l 0,20.522 12.272,0 c 5.399,0 9.368,-0.507 12.002,-1.522 C -2.467,19.07 -0.48,17.59 0.805,15.63 2.133,13.692 2.808,11.349 2.808,8.503 2.808,5.188 1.857,2.386 0,0 m -18.978,58.591 c 6.074,0 10.313,-0.377 12.677,-1.139 2.317,-0.739 4.13,-1.981 5.378,-3.752 1.241,-1.771 1.852,-3.925 1.852,-6.393 0,-2.402 -0.654,-4.514 -1.939,-6.349 -1.328,-1.831 -3.288,-3.202 -5.906,-4.087 -2.592,-0.929 -6.62,-1.393 -12.04,-1.393 l -10.378,0 -0.021,23.113 10.377,0 z M 24.383,17.444 c -1.982,3.418 -4.659,6.096 -8.077,7.975 -2.344,1.35 -5.756,2.613 -10.189,3.731 4.136,1.414 7.467,3.164 9.978,5.334 2.553,2.176 4.47,4.66 5.777,7.446 1.371,2.829 2.068,5.777 2.068,8.903 0,4.297 -1.263,8.266 -3.817,11.873 -2.554,3.607 -6.161,6.365 -10.885,8.266 -1.814,0.739 -3.984,1.306 -6.366,1.771 l 0,16.726 -16.029,0 0,-15.609 -10.334,0 0,15.609 -16.03,0 0,-15.609 -24.486,0 0,-13.098 3.694,0 c 2.504,0 4.215,-0.232 5.08,-0.675 0.885,-0.464 1.517,-1.074 1.879,-1.852 0.377,-0.761 0.545,-2.554 0.545,-5.361 l 0,-52.874 c 0,-2.759 -0.168,-4.508 -0.545,-5.292 -0.362,-0.798 -0.994,-1.414 -1.879,-1.878 -0.865,-0.421 -2.576,-0.61 -5.08,-0.61 l -3.694,0 0,-13.099 24.486,0 0,-15.603 16.03,0 0,15.603 10.311,0 0,-15.603 16.052,0 0,16.931 c 2.7,0.508 5.081,1.183 7.084,1.987 5.529,2.214 9.832,5.437 12.845,9.681 3.061,4.238 4.578,8.876 4.578,13.898 0,4.194 -0.993,8.012 -2.996,11.429"
           style="fill:#505050;fill-opacity:1;fill-rule:nonzero;stroke:none"
           id="path4196" />
      </g>
      <g
         id="g4198"
         transform="matrix(1.25,0,0,-1.25,-22.144364,228.6081)">
        <path
           d="m 0,0 c 15.043,39.173 53.034,67.063 97.438,67.063 39.636,0 74.178,-22.215 91.838,-54.846 l 13.263,3.979 C 183.008,54.421 143.229,80.654 97.438,80.654 45.43,80.654 1.182,46.815 -14.459,0 L 0,0 Z"
           style="fill:#505050;fill-opacity:1;fill-rule:nonzero;stroke:none"
           id="path4200" />
      </g>
      <g
         id="g4202"
         transform="matrix(1.25,0,0,-1.25,213.02901,347.9081)">
        <path
           d="m 0,0 c -0.896,0.809 -1.718,1.648 -2.488,2.507 -18.51,-29.239 -51.12,-48.708 -88.212,-48.708 -26.406,0 -50.535,9.878 -68.935,26.108 -3.155,-3.53 -6.635,-6.505 -10.435,-8.921 20.967,-19.11 48.831,-30.778 79.37,-30.778 41.558,0 78.164,21.608 99.177,54.178 C 5.476,-4.188 2.612,-2.359 0,0"
           style="fill:#505050;fill-opacity:1;fill-rule:nonzero;stroke:none"
           id="path4204" />
      </g>
    </g>
  </g>
</svg>
